<?xml version="1.0" encoding="iso-8859-1"?>
<!-- Uploaded to: SVG Repo, www.svgrepo.com, Generator: SVG Repo Mixer Tools -->
<!DOCTYPE svg PUBLIC "-//W3C//DTD SVG 1.1//EN" "http://www.w3.org/Graphics/SVG/1.1/DTD/svg11.dtd">
<svg fill="#000000" height="800px" width="800px" version="1.1" id="Capa_1" xmlns="http://www.w3.org/2000/svg" xmlns:xlink="http://www.w3.org/1999/xlink" 
	 viewBox="0 0 481.39 481.39" xml:space="preserve">
<g>
	<path d="M240.699,0C107.764,0,0,107.764,0,240.691C0,373.625,107.764,481.39,240.699,481.39
		c132.927,0,240.691-107.765,240.691-240.698C481.39,107.764,373.626,0,240.699,0z M187.229,66.647
		c6.427,0,11.629,5.226,11.629,11.646c0,9.318,3.175,17.865,8.354,24.816c9.194-7.438,20.732-12.092,33.479-12.092
		s24.285,4.654,33.479,12.092c5.178-6.951,8.354-15.498,8.354-24.816c0-6.42,5.202-11.646,11.629-11.646
		c6.443,0,11.645,5.226,11.645,11.646c0,16.748-6.411,31.991-16.839,43.543c3.245,6.905,5.194,14.527,5.194,22.666
		c0,2.05-0.377,4.009-0.602,5.987c25.495,10.196,40.354,27.19,47.15,43.137c10.442-17.465,16.561-37.803,16.561-59.589
		c0-6.429,5.211-11.638,11.645-11.638c6.429,0,11.637,5.209,11.637,11.638c0,36.045-13.825,68.845-36.307,93.659
		c-0.338,2.828-0.778,5.919-1.316,9.271c23.258,24.993,37.623,58.372,37.623,95.118c0,3.43-1.548,6.435-3.906,8.563l-20.269-20.27
		l-0.254-0.254c-2.197-19.189-8.71-37.077-19.09-52.275c-1.98,8.285-4.462,17.094-7.213,25.972l-0.286-0.285L186.905,150.914
		c0.324-0.131,0.602-0.293,0.925-0.425c-0.224-1.979-0.601-3.938-0.601-5.987c0-8.139,1.949-15.761,5.194-22.666
		c-10.427-11.552-16.839-26.795-16.839-43.543C175.584,71.873,180.786,66.647,187.229,66.647z M333.443,414.748
		c-6.421,0-11.645-5.224-11.645-11.645c0-19.136-6.691-36.714-17.834-50.61c-15.746,25.733-36.507,44.607-63.273,44.607
		s-47.551-18.874-63.296-44.607c-11.12,13.897-17.811,31.475-17.811,50.61c0,6.421-5.224,11.645-11.645,11.645
		c-6.427,0-11.637-5.224-11.637-11.645c0-28.183,11.276-53.748,29.495-72.553c-9.61-20.954-16.623-43.851-21.44-64.012
		c-12.754,18.682-20.237,41.262-20.237,65.547c0,6.427-5.21,11.637-11.645,11.637c-6.429,0-11.638-5.21-11.638-11.637
		c0-36.746,14.357-70.125,37.617-95.11c-0.532-3.36-0.98-6.451-1.318-9.279c-22.474-24.822-36.299-57.614-36.299-93.659
		c0-0.663,0.27-1.227,0.377-1.857l25.664,25.664l21.879,21.879l191.121,191.121c3.329,10.164,5.202,20.985,5.202,32.26
		C345.08,409.524,339.87,414.748,333.443,414.748z"/>
</g>
</svg>